solid tractionEnd
 facet normal  1.000000e+00 -0.000000e+00  0.000000e+00
   outer loop
     vertex  3.000000e+01  3.932619e-01  4.751822e-01
     vertex  3.000000e+01  5.136553e-01  4.381765e-01
     vertex  3.000000e+01  4.786384e-01  5.426534e-01
   endloop
 endfacet
 facet normal  1.000000e+00  0.000000e+00 -0.000000e+00
   outer loop
     vertex  3.000000e+01  5.136553e-01  4.381765e-01
     vertex  3.000000e+01  6.064275e-01  5.191989e-01
     vertex  3.000000e+01  4.786384e-01  5.426534e-01
   endloop
 endfacet
 facet normal  1.000000e+00 -0.000000e+00  0.000000e+00
   outer loop
     vertex  3.000000e+01  4.236374e-01  3.670347e-01
     vertex  3.000000e+01  5.338234e-01  3.327002e-01
     vertex  3.000000e+01  5.136553e-01  4.381765e-01
   endloop
 endfacet
 facet normal  1.000000e+00  0.000000e+00 -0.000000e+00
   outer loop
     vertex  3.000000e+01  5.338234e-01  3.327002e-01
     vertex  3.000000e+01  6.373356e-01  3.811246e-01
     vertex  3.000000e+01  5.136553e-01  4.381765e-01
   endloop
 endfacet
 facet normal  1.000000e+00  0.000000e+00  0.000000e+00
   outer loop
     vertex  3.000000e+01  3.932619e-01  4.751822e-01
     vertex  3.000000e+01  4.236374e-01  3.670347e-01
     vertex  3.000000e+01  5.136553e-01  4.381765e-01
   endloop
 endfacet
 facet normal  1.000000e+00  0.000000e+00  0.000000e+00
   outer loop
     vertex  3.000000e+01  6.373356e-01  3.811246e-01
     vertex  3.000000e+01  6.064275e-01  5.191989e-01
     vertex  3.000000e+01  5.136553e-01  4.381765e-01
   endloop
 endfacet
 facet normal  1.000000e+00  0.000000e+00  0.000000e+00
   outer loop
     vertex  3.000000e+01  3.718018e-01  5.851178e-01
     vertex  3.000000e+01  3.932619e-01  4.751822e-01
     vertex  3.000000e+01  4.786384e-01  5.426534e-01
   endloop
 endfacet
 facet normal  1.000000e+00  0.000000e+00  0.000000e+00
   outer loop
     vertex  3.000000e+01  5.380357e-01  6.274810e-01
     vertex  3.000000e+01  4.456792e-01  6.335436e-01
     vertex  3.000000e+01  4.786384e-01  5.426534e-01
   endloop
 endfacet
 facet normal  1.000000e+00  0.000000e+00  0.000000e+00
   outer loop
     vertex  3.000000e+01  4.456792e-01  6.335436e-01
     vertex  3.000000e+01  3.718018e-01  5.851178e-01
     vertex  3.000000e+01  4.786384e-01  5.426534e-01
   endloop
 endfacet
 facet normal  1.000000e+00  0.000000e+00  0.000000e+00
   outer loop
     vertex  3.000000e+01  5.380357e-01  6.274810e-01
     vertex  3.000000e+01  4.786384e-01  5.426534e-01
     vertex  3.000000e+01  6.064275e-01  5.191989e-01
   endloop
 endfacet
 facet normal  1.000000e+00  0.000000e+00  0.000000e+00
   outer loop
     vertex  3.000000e+01  6.395323e-01  6.354282e-01
     vertex  3.000000e+01  5.380357e-01  6.274810e-01
     vertex  3.000000e+01  6.064275e-01  5.191989e-01
   endloop
 endfacet
 facet normal  1.000000e+00  0.000000e+00  0.000000e+00
   outer loop
     vertex  3.000000e+01  7.227195e-01  5.617906e-01
     vertex  3.000000e+01  6.395323e-01  6.354282e-01
     vertex  3.000000e+01  6.064275e-01  5.191989e-01
   endloop
 endfacet
 facet normal  1.000000e+00  0.000000e+00  0.000000e+00
   outer loop
     vertex  3.000000e+01  5.716143e-01  7.237774e-01
     vertex  3.000000e+01  5.380357e-01  6.274810e-01
     vertex  3.000000e+01  6.395323e-01  6.354282e-01
   endloop
 endfacet
 facet normal  1.000000e+00  0.000000e+00  0.000000e+00
   outer loop
     vertex  3.000000e+01  4.236374e-01  3.670347e-01
     vertex  3.000000e+01  4.551407e-01  2.648923e-01
     vertex  3.000000e+01  5.338234e-01  3.327002e-01
   endloop
 endfacet
 facet normal  1.000000e+00  0.000000e+00  0.000000e+00
   outer loop
     vertex  3.000000e+01  6.669078e-01  7.342930e-01
     vertex  3.000000e+01  5.716143e-01  7.237774e-01
     vertex  3.000000e+01  6.395323e-01  6.354282e-01
   endloop
 endfacet
 facet normal  1.000000e+00  0.000000e+00 -0.000000e+00
   outer loop
     vertex  3.000000e+01  7.227195e-01  5.617906e-01
     vertex  3.000000e+01  7.372818e-01  6.605869e-01
     vertex  3.000000e+01  6.395323e-01  6.354282e-01
   endloop
 endfacet
 facet normal  1.000000e+00  0.000000e+00  0.000000e+00
   outer loop
     vertex  3.000000e+01  7.372818e-01  6.605869e-01
     vertex  3.000000e+01  6.669078e-01  7.342930e-01
     vertex  3.000000e+01  6.395323e-01  6.354282e-01
   endloop
 endfacet
 facet normal  1.000000e+00  0.000000e+00 -0.000000e+00
   outer loop
     vertex  3.000000e+01  2.969158e-01  3.994211e-01
     vertex  3.000000e+01  3.932619e-01  4.751822e-01
     vertex  3.000000e+01  2.854155e-01  5.299558e-01
   endloop
 endfacet
 facet normal  1.000000e+00  0.000000e+00  0.000000e+00
   outer loop
     vertex  3.000000e+01  0.000000e+00  0.000000e+00
     vertex  3.000000e+01  1.000000e-01  0.000000e+00
     vertex  3.000000e+01  0.000000e+00  1.000000e-01
   endloop
 endfacet
 facet normal  1.000000e+00  0.000000e+00  0.000000e+00
   outer loop
     vertex  3.000000e+01  1.000000e-01  0.000000e+00
     vertex  3.000000e+01  2.000000e-01  0.000000e+00
     vertex  3.000000e+01  1.415240e-01  9.115968e-02
   endloop
 endfacet
 facet normal  1.000000e+00  0.000000e+00  0.000000e+00
   outer loop
     vertex  3.000000e+01  3.000000e-01  0.000000e+00
     vertex  3.000000e+01  4.000000e-01  0.000000e+00
     vertex  3.000000e+01  3.491037e-01  9.183165e-02
   endloop
 endfacet
 facet normal  1.000000e+00  0.000000e+00  0.000000e+00
   outer loop
     vertex  3.000000e+01  5.000000e-01  0.000000e+00
     vertex  3.000000e+01  6.000000e-01  0.000000e+00
     vertex  3.000000e+01  5.484744e-01  8.591896e-02
   endloop
 endfacet
 facet normal  1.000000e+00  0.000000e+00  0.000000e+00
   outer loop
     vertex  3.000000e+01  7.000000e-01  0.000000e+00
     vertex  3.000000e+01  8.000000e-01  0.000000e+00
     vertex  3.000000e+01  7.453604e-01  9.134496e-02
   endloop
 endfacet
 facet normal  1.000000e+00  0.000000e+00  0.000000e+00
   outer loop
     vertex  3.000000e+01  9.000000e-01  0.000000e+00
     vertex  3.000000e+01  1.000000e+00  0.000000e+00
     vertex  3.000000e+01  1.000000e+00  1.000000e-01
   endloop
 endfacet
 facet normal  1.000000e+00  0.000000e+00 -0.000000e+00
   outer loop
     vertex  3.000000e+01  1.000000e+00  1.000000e-01
     vertex  3.000000e+01  1.000000e+00  2.000000e-01
     vertex  3.000000e+01  9.113837e-01  1.391272e-01
   endloop
 endfacet
 facet normal  1.000000e+00  0.000000e+00 -0.000000e+00
   outer loop
     vertex  3.000000e+01  1.000000e+00  3.000000e-01
     vertex  3.000000e+01  1.000000e+00  4.000000e-01
     vertex  3.000000e+01  9.114530e-01  3.502037e-01
   endloop
 endfacet
 facet normal  1.000000e+00  0.000000e+00 -0.000000e+00
   outer loop
     vertex  3.000000e+01  1.000000e+00  5.000000e-01
     vertex  3.000000e+01  1.000000e+00  6.000000e-01
     vertex  3.000000e+01  9.107668e-01  5.514259e-01
   endloop
 endfacet
 facet normal  1.000000e+00  0.000000e+00 -0.000000e+00
   outer loop
     vertex  3.000000e+01  1.000000e+00  7.000000e-01
     vertex  3.000000e+01  1.000000e+00  8.000000e-01
     vertex  3.000000e+01  9.124005e-01  7.485055e-01
   endloop
 endfacet
 facet normal  1.000000e+00  0.000000e+00 -0.000000e+00
   outer loop
     vertex  3.000000e+01  1.000000e+00  9.000000e-01
     vertex  3.000000e+01  1.000000e+00  1.000000e+00
     vertex  3.000000e+01  9.000000e-01  1.000000e+00
   endloop
 endfacet
 facet normal  1.000000e+00  0.000000e+00  0.000000e+00
   outer loop
     vertex  3.000000e+01  9.000000e-01  1.000000e+00
     vertex  3.000000e+01  8.000000e-01  1.000000e+00
     vertex  3.000000e+01  8.633152e-01  9.129114e-01
   endloop
 endfacet
 facet normal  1.000000e+00  0.000000e+00  0.000000e+00
   outer loop
     vertex  3.000000e+01  7.000000e-01  1.000000e+00
     vertex  3.000000e+01  6.000000e-01  1.000000e+00
     vertex  3.000000e+01  6.541892e-01  9.100960e-01
   endloop
 endfacet
 facet normal  1.000000e+00  0.000000e+00  0.000000e+00
   outer loop
     vertex  3.000000e+01  5.000000e-01  1.000000e+00
     vertex  3.000000e+01  4.000000e-01  1.000000e+00
     vertex  3.000000e+01  4.513866e-01  9.029966e-01
   endloop
 endfacet
 facet normal  1.000000e+00  0.000000e+00  0.000000e+00
   outer loop
     vertex  3.000000e+01  3.000000e-01  1.000000e+00
     vertex  3.000000e+01  2.000000e-01  1.000000e+00
     vertex  3.000000e+01  2.500777e-01  9.023614e-01
   endloop
 endfacet
 facet normal  1.000000e+00  0.000000e+00  0.000000e+00
   outer loop
     vertex  3.000000e+01  1.000000e-01  1.000000e+00
     vertex  3.000000e+01  0.000000e+00  1.000000e+00
     vertex  3.000000e+01  0.000000e+00  9.000000e-01
   endloop
 endfacet
 facet normal  1.000000e+00  0.000000e+00  0.000000e+00
   outer loop
     vertex  3.000000e+01  0.000000e+00  9.000000e-01
     vertex  3.000000e+01  0.000000e+00  8.000000e-01
     vertex  3.000000e+01  8.545589e-02  8.637908e-01
   endloop
 endfacet
 facet normal  1.000000e+00  0.000000e+00  0.000000e+00
   outer loop
     vertex  3.000000e+01  0.000000e+00  7.000000e-01
     vertex  3.000000e+01  0.000000e+00  6.000000e-01
     vertex  3.000000e+01  9.405912e-02  6.522361e-01
   endloop
 endfacet
 facet normal  1.000000e+00  0.000000e+00  0.000000e+00
   outer loop
     vertex  3.000000e+01  0.000000e+00  5.000000e-01
     vertex  3.000000e+01  0.000000e+00  4.000000e-01
     vertex  3.000000e+01  9.212657e-02  4.428593e-01
   endloop
 endfacet
 facet normal  1.000000e+00  0.000000e+00  0.000000e+00
   outer loop
     vertex  3.000000e+01  0.000000e+00  3.000000e-01
     vertex  3.000000e+01  0.000000e+00  2.000000e-01
     vertex  3.000000e+01  6.715222e-02  2.582465e-01
   endloop
 endfacet
 facet normal  1.000000e+00  0.000000e+00  0.000000e+00
   outer loop
     vertex  3.000000e+01  0.000000e+00  1.000000e-01
     vertex  3.000000e+01  1.000000e-01  0.000000e+00
     vertex  3.000000e+01  1.415240e-01  9.115968e-02
   endloop
 endfacet
 facet normal  1.000000e+00  0.000000e+00  0.000000e+00
   outer loop
     vertex  3.000000e+01  9.000000e-01  0.000000e+00
     vertex  3.000000e+01  1.000000e+00  1.000000e-01
     vertex  3.000000e+01  9.113837e-01  1.391272e-01
   endloop
 endfacet
 facet normal  1.000000e+00  0.000000e+00  0.000000e+00
   outer loop
     vertex  3.000000e+01  1.000000e+00  9.000000e-01
     vertex  3.000000e+01  9.000000e-01  1.000000e+00
     vertex  3.000000e+01  8.633152e-01  9.129114e-01
   endloop
 endfacet
 facet normal  1.000000e+00  0.000000e+00  0.000000e+00
   outer loop
     vertex  3.000000e+01  1.000000e-01  1.000000e+00
     vertex  3.000000e+01  0.000000e+00  9.000000e-01
     vertex  3.000000e+01  8.545589e-02  8.637908e-01
   endloop
 endfacet
 facet normal  1.000000e+00  0.000000e+00  0.000000e+00
   outer loop
     vertex  3.000000e+01  2.000000e-01  0.000000e+00
     vertex  3.000000e+01  3.000000e-01  0.000000e+00
     vertex  3.000000e+01  2.478525e-01  9.253862e-02
   endloop
 endfacet
 facet normal  1.000000e+00  0.000000e+00  0.000000e+00
   outer loop
     vertex  3.000000e+01  4.000000e-01  0.000000e+00
     vertex  3.000000e+01  5.000000e-01  0.000000e+00
     vertex  3.000000e+01  4.485281e-01  8.801748e-02
   endloop
 endfacet
 facet normal  1.000000e+00  0.000000e+00  0.000000e+00
   outer loop
     vertex  3.000000e+01  6.000000e-01  0.000000e+00
     vertex  3.000000e+01  7.000000e-01  0.000000e+00
     vertex  3.000000e+01  6.476384e-01  8.797068e-02
   endloop
 endfacet
 facet normal  1.000000e+00 -0.000000e+00  0.000000e+00
   outer loop
     vertex  3.000000e+01  6.476384e-01  8.797068e-02
     vertex  3.000000e+01  7.000000e-01  0.000000e+00
     vertex  3.000000e+01  7.453604e-01  9.134496e-02
   endloop
 endfacet
 facet normal  1.000000e+00  0.000000e+00  0.000000e+00
   outer loop
     vertex  3.000000e+01  8.000000e-01  0.000000e+00
     vertex  3.000000e+01  9.000000e-01  0.000000e+00
     vertex  3.000000e+01  8.346194e-01  8.565965e-02
   endloop
 endfacet
 facet normal  1.000000e+00  0.000000e+00 -0.000000e+00
   outer loop
     vertex  3.000000e+01  1.000000e+00  2.000000e-01
     vertex  3.000000e+01  1.000000e+00  3.000000e-01
     vertex  3.000000e+01  9.076751e-01  2.458742e-01
   endloop
 endfacet
 facet normal  1.000000e+00  0.000000e+00 -0.000000e+00
   outer loop
     vertex  3.000000e+01  1.000000e+00  4.000000e-01
     vertex  3.000000e+01  1.000000e+00  5.000000e-01
     vertex  3.000000e+01  9.114624e-01  4.520960e-01
   endloop
 endfacet
 facet normal  1.000000e+00  0.000000e+00 -0.000000e+00
   outer loop
     vertex  3.000000e+01  1.000000e+00  6.000000e-01
     vertex  3.000000e+01  1.000000e+00  7.000000e-01
     vertex  3.000000e+01  9.122022e-01  6.504929e-01
   endloop
 endfacet
 facet normal  1.000000e+00  0.000000e+00  0.000000e+00
   outer loop
     vertex  3.000000e+01  4.485281e-01  8.801748e-02
     vertex  3.000000e+01  5.000000e-01  0.000000e+00
     vertex  3.000000e+01  5.484744e-01  8.591896e-02
   endloop
 endfacet
 facet normal  1.000000e+00  0.000000e+00 -0.000000e+00
   outer loop
     vertex  3.000000e+01  1.000000e+00  8.000000e-01
     vertex  3.000000e+01  1.000000e+00  9.000000e-01
     vertex  3.000000e+01  9.177555e-01  8.368807e-01
   endloop
 endfacet
 facet normal  1.000000e+00  0.000000e+00  0.000000e+00
   outer loop
     vertex  3.000000e+01  8.000000e-01  1.000000e+00
     vertex  3.000000e+01  7.000000e-01  1.000000e+00
     vertex  3.000000e+01  7.581756e-01  9.096986e-01
   endloop
 endfacet
 facet normal  1.000000e+00  0.000000e+00  0.000000e+00
   outer loop
     vertex  3.000000e+01  6.000000e-01  1.000000e+00
     vertex  3.000000e+01  5.000000e-01  1.000000e+00
     vertex  3.000000e+01  5.531825e-01  9.072185e-01
   endloop
 endfacet
 facet normal  1.000000e+00  0.000000e+00  0.000000e+00
   outer loop
     vertex  3.000000e+01  4.000000e-01  1.000000e+00
     vertex  3.000000e+01  3.000000e-01  1.000000e+00
     vertex  3.000000e+01  3.490580e-01  8.980811e-01
   endloop
 endfacet
 facet normal  1.000000e+00  0.000000e+00  0.000000e+00
   outer loop
     vertex  3.000000e+01  2.478525e-01  9.253862e-02
     vertex  3.000000e+01  3.000000e-01  0.000000e+00
     vertex  3.000000e+01  3.491037e-01  9.183165e-02
   endloop
 endfacet
 facet normal  1.000000e+00  0.000000e+00  0.000000e+00
   outer loop
     vertex  3.000000e+01  2.000000e-01  1.000000e+00
     vertex  3.000000e+01  1.000000e-01  1.000000e+00
     vertex  3.000000e+01  1.615853e-01  9.167682e-01
   endloop
 endfacet
 facet normal  1.000000e+00  0.000000e+00 -0.000000e+00
   outer loop
     vertex  3.000000e+01  2.000000e-01  0.000000e+00
     vertex  3.000000e+01  2.478525e-01  9.253862e-02
     vertex  3.000000e+01  1.415240e-01  9.115968e-02
   endloop
 endfacet
 facet normal  1.000000e+00  0.000000e+00  0.000000e+00
   outer loop
     vertex  3.000000e+01  0.000000e+00  8.000000e-01
     vertex  3.000000e+01  0.000000e+00  7.000000e-01
     vertex  3.000000e+01  9.180056e-02  7.574959e-01
   endloop
 endfacet
 facet normal  1.000000e+00  0.000000e+00  0.000000e+00
   outer loop
     vertex  3.000000e+01  0.000000e+00  6.000000e-01
     vertex  3.000000e+01  0.000000e+00  5.000000e-01
     vertex  3.000000e+01  9.453630e-02  5.462130e-01
   endloop
 endfacet
 facet normal  1.000000e+00  0.000000e+00  0.000000e+00
   outer loop
     vertex  3.000000e+01  0.000000e+00  4.000000e-01
     vertex  3.000000e+01  0.000000e+00  3.000000e-01
     vertex  3.000000e+01  8.328274e-02  3.444445e-01
   endloop
 endfacet
 facet normal  1.000000e+00  0.000000e+00  0.000000e+00
   outer loop
     vertex  3.000000e+01  0.000000e+00  2.000000e-01
     vertex  3.000000e+01  0.000000e+00  1.000000e-01
     vertex  3.000000e+01  9.649381e-02  1.783521e-01
   endloop
 endfacet
 facet normal  1.000000e+00  0.000000e+00  0.000000e+00
   outer loop
     vertex  3.000000e+01  9.076751e-01  2.458742e-01
     vertex  3.000000e+01  1.000000e+00  3.000000e-01
     vertex  3.000000e+01  9.114530e-01  3.502037e-01
   endloop
 endfacet
 facet normal  1.000000e+00  0.000000e+00  0.000000e+00
   outer loop
     vertex  3.000000e+01  3.491037e-01  9.183165e-02
     vertex  3.000000e+01  4.000000e-01  0.000000e+00
     vertex  3.000000e+01  4.485281e-01  8.801748e-02
   endloop
 endfacet
 facet normal  1.000000e+00 -0.000000e+00  0.000000e+00
   outer loop
     vertex  3.000000e+01  5.484744e-01  8.591896e-02
     vertex  3.000000e+01  6.000000e-01  0.000000e+00
     vertex  3.000000e+01  6.476384e-01  8.797068e-02
   endloop
 endfacet
 facet normal  1.000000e+00  0.000000e+00  0.000000e+00
   outer loop
     vertex  3.000000e+01  7.453604e-01  9.134496e-02
     vertex  3.000000e+01  8.000000e-01  0.000000e+00
     vertex  3.000000e+01  8.346194e-01  8.565965e-02
   endloop
 endfacet
 facet normal  1.000000e+00  0.000000e+00  0.000000e+00
   outer loop
     vertex  3.000000e+01  9.114530e-01  3.502037e-01
     vertex  3.000000e+01  1.000000e+00  4.000000e-01
     vertex  3.000000e+01  9.114624e-01  4.520960e-01
   endloop
 endfacet
 facet normal  1.000000e+00  0.000000e+00  0.000000e+00
   outer loop
     vertex  3.000000e+01  9.107668e-01  5.514259e-01
     vertex  3.000000e+01  1.000000e+00  6.000000e-01
     vertex  3.000000e+01  9.122022e-01  6.504929e-01
   endloop
 endfacet
 facet normal  1.000000e+00  0.000000e+00  0.000000e+00
   outer loop
     vertex  3.000000e+01  9.124005e-01  7.485055e-01
     vertex  3.000000e+01  1.000000e+00  8.000000e-01
     vertex  3.000000e+01  9.177555e-01  8.368807e-01
   endloop
 endfacet
 facet normal  1.000000e+00  0.000000e+00  0.000000e+00
   outer loop
     vertex  3.000000e+01  6.541892e-01  9.100960e-01
     vertex  3.000000e+01  6.000000e-01  1.000000e+00
     vertex  3.000000e+01  5.531825e-01  9.072185e-01
   endloop
 endfacet
 facet normal  1.000000e+00  0.000000e+00  0.000000e+00
   outer loop
     vertex  3.000000e+01  4.513866e-01  9.029966e-01
     vertex  3.000000e+01  4.000000e-01  1.000000e+00
     vertex  3.000000e+01  3.490580e-01  8.980811e-01
   endloop
 endfacet
 facet normal  1.000000e+00  0.000000e+00  0.000000e+00
   outer loop
     vertex  3.000000e+01  2.500777e-01  9.023614e-01
     vertex  3.000000e+01  2.000000e-01  1.000000e+00
     vertex  3.000000e+01  1.615853e-01  9.167682e-01
   endloop
 endfacet
 facet normal  1.000000e+00  0.000000e+00  0.000000e+00
   outer loop
     vertex  3.000000e+01  9.405912e-02  6.522361e-01
     vertex  3.000000e+01  0.000000e+00  6.000000e-01
     vertex  3.000000e+01  9.453630e-02  5.462130e-01
   endloop
 endfacet
 facet normal  1.000000e+00  0.000000e+00  0.000000e+00
   outer loop
     vertex  3.000000e+01  9.212657e-02  4.428593e-01
     vertex  3.000000e+01  0.000000e+00  4.000000e-01
     vertex  3.000000e+01  8.328274e-02  3.444445e-01
   endloop
 endfacet
 facet normal  1.000000e+00  0.000000e+00  0.000000e+00
   outer loop
     vertex  3.000000e+01  6.715222e-02  2.582465e-01
     vertex  3.000000e+01  0.000000e+00  2.000000e-01
     vertex  3.000000e+01  9.649381e-02  1.783521e-01
   endloop
 endfacet
 facet normal  1.000000e+00  0.000000e+00 -0.000000e+00
   outer loop
     vertex  3.000000e+01  9.114624e-01  4.520960e-01
     vertex  3.000000e+01  1.000000e+00  5.000000e-01
     vertex  3.000000e+01  9.107668e-01  5.514259e-01
   endloop
 endfacet
 facet normal  1.000000e+00  0.000000e+00  0.000000e+00
   outer loop
     vertex  3.000000e+01  9.122022e-01  6.504929e-01
     vertex  3.000000e+01  1.000000e+00  7.000000e-01
     vertex  3.000000e+01  9.124005e-01  7.485055e-01
   endloop
 endfacet
 facet normal  1.000000e+00  0.000000e+00  0.000000e+00
   outer loop
     vertex  3.000000e+01  7.581756e-01  9.096986e-01
     vertex  3.000000e+01  7.000000e-01  1.000000e+00
     vertex  3.000000e+01  6.541892e-01  9.100960e-01
   endloop
 endfacet
 facet normal  1.000000e+00  0.000000e+00  0.000000e+00
   outer loop
     vertex  3.000000e+01  5.531825e-01  9.072185e-01
     vertex  3.000000e+01  5.000000e-01  1.000000e+00
     vertex  3.000000e+01  4.513866e-01  9.029966e-01
   endloop
 endfacet
 facet normal  1.000000e+00  0.000000e+00  0.000000e+00
   outer loop
     vertex  3.000000e+01  3.490580e-01  8.980811e-01
     vertex  3.000000e+01  3.000000e-01  1.000000e+00
     vertex  3.000000e+01  2.500777e-01  9.023614e-01
   endloop
 endfacet
 facet normal  1.000000e+00  0.000000e+00  0.000000e+00
   outer loop
     vertex  3.000000e+01  9.453630e-02  5.462130e-01
     vertex  3.000000e+01  0.000000e+00  5.000000e-01
     vertex  3.000000e+01  9.212657e-02  4.428593e-01
   endloop
 endfacet
 facet normal  1.000000e+00  0.000000e+00  0.000000e+00
   outer loop
     vertex  3.000000e+01  8.328274e-02  3.444445e-01
     vertex  3.000000e+01  0.000000e+00  3.000000e-01
     vertex  3.000000e+01  6.715222e-02  2.582465e-01
   endloop
 endfacet
 facet normal  1.000000e+00 -0.000000e+00  0.000000e+00
   outer loop
     vertex  3.000000e+01  0.000000e+00  8.000000e-01
     vertex  3.000000e+01  9.180056e-02  7.574959e-01
     vertex  3.000000e+01  8.545589e-02  8.637908e-01
   endloop
 endfacet
 facet normal  1.000000e+00  0.000000e+00  0.000000e+00
   outer loop
     vertex  3.000000e+01  1.000000e+00  2.000000e-01
     vertex  3.000000e+01  9.076751e-01  2.458742e-01
     vertex  3.000000e+01  9.113837e-01  1.391272e-01
   endloop
 endfacet
 facet normal  1.000000e+00  0.000000e+00  0.000000e+00
   outer loop
     vertex  3.000000e+01  8.000000e-01  1.000000e+00
     vertex  3.000000e+01  7.581756e-01  9.096986e-01
     vertex  3.000000e+01  8.633152e-01  9.129114e-01
   endloop
 endfacet
 facet normal  1.000000e+00  0.000000e+00  0.000000e+00
   outer loop
     vertex  3.000000e+01  9.180056e-02  7.574959e-01
     vertex  3.000000e+01  0.000000e+00  7.000000e-01
     vertex  3.000000e+01  9.405912e-02  6.522361e-01
   endloop
 endfacet
 facet normal  1.000000e+00  0.000000e+00  0.000000e+00
   outer loop
     vertex  3.000000e+01  9.405912e-02  6.522361e-01
     vertex  3.000000e+01  9.453630e-02  5.462130e-01
     vertex  3.000000e+01  1.884757e-01  5.957447e-01
   endloop
 endfacet
 facet normal  1.000000e+00  0.000000e+00  0.000000e+00
   outer loop
     vertex  3.000000e+01  5.484744e-01  8.591896e-02
     vertex  3.000000e+01  6.476384e-01  8.797068e-02
     vertex  3.000000e+01  5.949530e-01  1.711680e-01
   endloop
 endfacet
 facet normal  1.000000e+00  0.000000e+00  0.000000e+00
   outer loop
     vertex  3.000000e+01  6.541892e-01  9.100960e-01
     vertex  3.000000e+01  5.531825e-01  9.072185e-01
     vertex  3.000000e+01  6.093259e-01  8.186333e-01
   endloop
 endfacet
 facet normal  1.000000e+00 -0.000000e+00  0.000000e+00
   outer loop
     vertex  3.000000e+01  7.453604e-01  9.134496e-02
     vertex  3.000000e+01  8.346194e-01  8.565965e-02
     vertex  3.000000e+01  8.053532e-01  1.900161e-01
   endloop
 endfacet
 facet normal  1.000000e+00  0.000000e+00 -0.000000e+00
   outer loop
     vertex  3.000000e+01  9.114530e-01  3.502037e-01
     vertex  3.000000e+01  9.114624e-01  4.520960e-01
     vertex  3.000000e+01  8.243957e-01  4.064649e-01
   endloop
 endfacet
 facet normal  1.000000e+00  0.000000e+00  0.000000e+00
   outer loop
     vertex  3.000000e+01  6.476384e-01  8.797068e-02
     vertex  3.000000e+01  7.453604e-01  9.134496e-02
     vertex  3.000000e+01  6.922197e-01  1.812290e-01
   endloop
 endfacet
 facet normal  1.000000e+00  0.000000e+00 -0.000000e+00
   outer loop
     vertex  3.000000e+01  7.453604e-01  9.134496e-02
     vertex  3.000000e+01  8.053532e-01  1.900161e-01
     vertex  3.000000e+01  6.922197e-01  1.812290e-01
   endloop
 endfacet
 facet normal  1.000000e+00 -0.000000e+00  0.000000e+00
   outer loop
     vertex  3.000000e+01  8.346194e-01  8.565965e-02
     vertex  3.000000e+01  9.000000e-01  0.000000e+00
     vertex  3.000000e+01  9.113837e-01  1.391272e-01
   endloop
 endfacet
 facet normal  1.000000e+00  0.000000e+00  0.000000e+00
   outer loop
     vertex  3.000000e+01  8.633152e-01  9.129114e-01
     vertex  3.000000e+01  7.581756e-01  9.096986e-01
     vertex  3.000000e+01  8.204178e-01  8.134262e-01
   endloop
 endfacet
 facet normal  1.000000e+00  0.000000e+00  0.000000e+00
   outer loop
     vertex  3.000000e+01  1.000000e+00  9.000000e-01
     vertex  3.000000e+01  8.633152e-01  9.129114e-01
     vertex  3.000000e+01  9.177555e-01  8.368807e-01
   endloop
 endfacet
 facet normal  1.000000e+00 -0.000000e+00  0.000000e+00
   outer loop
     vertex  3.000000e+01  3.491037e-01  9.183165e-02
     vertex  3.000000e+01  4.485281e-01  8.801748e-02
     vertex  3.000000e+01  3.998035e-01  1.813870e-01
   endloop
 endfacet
 facet normal  1.000000e+00  0.000000e+00 -0.000000e+00
   outer loop
     vertex  3.000000e+01  9.107668e-01  5.514259e-01
     vertex  3.000000e+01  9.122022e-01  6.504929e-01
     vertex  3.000000e+01  8.213860e-01  6.041510e-01
   endloop
 endfacet
 facet normal  1.000000e+00  0.000000e+00  0.000000e+00
   outer loop
     vertex  3.000000e+01  7.581756e-01  9.096986e-01
     vertex  3.000000e+01  6.541892e-01  9.100960e-01
     vertex  3.000000e+01  7.093088e-01  8.250921e-01
   endloop
 endfacet
 facet normal  1.000000e+00  0.000000e+00  0.000000e+00
   outer loop
     vertex  3.000000e+01  8.204178e-01  8.134262e-01
     vertex  3.000000e+01  7.581756e-01  9.096986e-01
     vertex  3.000000e+01  7.093088e-01  8.250921e-01
   endloop
 endfacet
 facet normal  1.000000e+00  0.000000e+00  0.000000e+00
   outer loop
     vertex  3.000000e+01  6.541892e-01  9.100960e-01
     vertex  3.000000e+01  6.093259e-01  8.186333e-01
     vertex  3.000000e+01  7.093088e-01  8.250921e-01
   endloop
 endfacet
 facet normal  1.000000e+00 -0.000000e+00  0.000000e+00
   outer loop
     vertex  3.000000e+01  4.485281e-01  8.801748e-02
     vertex  3.000000e+01  5.484744e-01  8.591896e-02
     vertex  3.000000e+01  4.966170e-01  1.704514e-01
   endloop
 endfacet
 facet normal  1.000000e+00  0.000000e+00 -0.000000e+00
   outer loop
     vertex  3.000000e+01  5.484744e-01  8.591896e-02
     vertex  3.000000e+01  5.949530e-01  1.711680e-01
     vertex  3.000000e+01  4.966170e-01  1.704514e-01
   endloop
 endfacet
 facet normal  1.000000e+00  0.000000e+00  0.000000e+00
   outer loop
     vertex  3.000000e+01  9.180056e-02  7.574959e-01
     vertex  3.000000e+01  9.405912e-02  6.522361e-01
     vertex  3.000000e+01  1.880674e-01  7.099010e-01
   endloop
 endfacet
 facet normal  1.000000e+00 -0.000000e+00  0.000000e+00
   outer loop
     vertex  3.000000e+01  9.405912e-02  6.522361e-01
     vertex  3.000000e+01  1.884757e-01  5.957447e-01
     vertex  3.000000e+01  1.880674e-01  7.099010e-01
   endloop
 endfacet
 facet normal  1.000000e+00  0.000000e+00  0.000000e+00
   outer loop
     vertex  3.000000e+01  1.000000e-01  1.000000e+00
     vertex  3.000000e+01  8.545589e-02  8.637908e-01
     vertex  3.000000e+01  1.615853e-01  9.167682e-01
   endloop
 endfacet
 facet normal  1.000000e+00  0.000000e+00  0.000000e+00
   outer loop
     vertex  3.000000e+01  4.513866e-01  9.029966e-01
     vertex  3.000000e+01  3.490580e-01  8.980811e-01
     vertex  3.000000e+01  4.043952e-01  8.021912e-01
   endloop
 endfacet
 facet normal  1.000000e+00  0.000000e+00  0.000000e+00
   outer loop
     vertex  3.000000e+01  2.500777e-01  9.023614e-01
     vertex  3.000000e+01  1.615853e-01  9.167682e-01
     vertex  3.000000e+01  1.797047e-01  8.197000e-01
   endloop
 endfacet
 facet normal  1.000000e+00 -0.000000e+00  0.000000e+00
   outer loop
     vertex  3.000000e+01  2.478525e-01  9.253862e-02
     vertex  3.000000e+01  3.491037e-01  9.183165e-02
     vertex  3.000000e+01  2.995691e-01  1.868026e-01
   endloop
 endfacet
 facet normal  1.000000e+00  0.000000e+00 -0.000000e+00
   outer loop
     vertex  3.000000e+01  3.491037e-01  9.183165e-02
     vertex  3.000000e+01  3.998035e-01  1.813870e-01
     vertex  3.000000e+01  2.995691e-01  1.868026e-01
   endloop
 endfacet
 facet normal  1.000000e+00  0.000000e+00  0.000000e+00
   outer loop
     vertex  3.000000e+01  1.415240e-01  9.115968e-02
     vertex  3.000000e+01  2.478525e-01  9.253862e-02
     vertex  3.000000e+01  1.983915e-01  1.835864e-01
   endloop
 endfacet
 facet normal  1.000000e+00  0.000000e+00 -0.000000e+00
   outer loop
     vertex  3.000000e+01  2.478525e-01  9.253862e-02
     vertex  3.000000e+01  2.995691e-01  1.868026e-01
     vertex  3.000000e+01  1.983915e-01  1.835864e-01
   endloop
 endfacet
 facet normal  1.000000e+00  0.000000e+00  0.000000e+00
   outer loop
     vertex  3.000000e+01  1.615853e-01  9.167682e-01
     vertex  3.000000e+01  8.545589e-02  8.637908e-01
     vertex  3.000000e+01  1.797047e-01  8.197000e-01
   endloop
 endfacet
 facet normal  1.000000e+00  0.000000e+00  0.000000e+00
   outer loop
     vertex  3.000000e+01  9.212657e-02  4.428593e-01
     vertex  3.000000e+01  8.328274e-02  3.444445e-01
     vertex  3.000000e+01  1.799689e-01  3.727892e-01
   endloop
 endfacet
 facet normal  1.000000e+00  0.000000e+00  0.000000e+00
   outer loop
     vertex  3.000000e+01  8.545589e-02  8.637908e-01
     vertex  3.000000e+01  9.180056e-02  7.574959e-01
     vertex  3.000000e+01  1.797047e-01  8.197000e-01
   endloop
 endfacet
 facet normal  1.000000e+00  0.000000e+00  0.000000e+00
   outer loop
     vertex  3.000000e+01  9.114624e-01  4.520960e-01
     vertex  3.000000e+01  9.107668e-01  5.514259e-01
     vertex  3.000000e+01  8.186846e-01  5.053895e-01
   endloop
 endfacet
 facet normal  1.000000e+00  0.000000e+00  0.000000e+00
   outer loop
     vertex  3.000000e+01  9.107668e-01  5.514259e-01
     vertex  3.000000e+01  8.213860e-01  6.041510e-01
     vertex  3.000000e+01  8.186846e-01  5.053895e-01
   endloop
 endfacet
 facet normal  1.000000e+00 -0.000000e+00  0.000000e+00
   outer loop
     vertex  3.000000e+01  0.000000e+00  1.000000e-01
     vertex  3.000000e+01  1.415240e-01  9.115968e-02
     vertex  3.000000e+01  9.649381e-02  1.783521e-01
   endloop
 endfacet
 facet normal  1.000000e+00  0.000000e+00 -0.000000e+00
   outer loop
     vertex  3.000000e+01  9.076751e-01  2.458742e-01
     vertex  3.000000e+01  9.114530e-01  3.502037e-01
     vertex  3.000000e+01  8.207695e-01  3.034185e-01
   endloop
 endfacet
 facet normal  1.000000e+00  0.000000e+00  0.000000e+00
   outer loop
     vertex  3.000000e+01  9.114530e-01  3.502037e-01
     vertex  3.000000e+01  8.243957e-01  4.064649e-01
     vertex  3.000000e+01  8.207695e-01  3.034185e-01
   endloop
 endfacet
 facet normal  1.000000e+00  0.000000e+00 -0.000000e+00
   outer loop
     vertex  3.000000e+01  8.346194e-01  8.565965e-02
     vertex  3.000000e+01  9.113837e-01  1.391272e-01
     vertex  3.000000e+01  8.053532e-01  1.900161e-01
   endloop
 endfacet
 facet normal  1.000000e+00  0.000000e+00  0.000000e+00
   outer loop
     vertex  3.000000e+01  9.177555e-01  8.368807e-01
     vertex  3.000000e+01  8.633152e-01  9.129114e-01
     vertex  3.000000e+01  8.204178e-01  8.134262e-01
   endloop
 endfacet
 facet normal  1.000000e+00 -0.000000e+00  0.000000e+00
   outer loop
     vertex  3.000000e+01  9.649381e-02  1.783521e-01
     vertex  3.000000e+01  1.415240e-01  9.115968e-02
     vertex  3.000000e+01  1.983915e-01  1.835864e-01
   endloop
 endfacet
 facet normal  1.000000e+00  0.000000e+00  0.000000e+00
   outer loop
     vertex  3.000000e+01  9.177555e-01  8.368807e-01
     vertex  3.000000e+01  8.204178e-01  8.134262e-01
     vertex  3.000000e+01  9.124005e-01  7.485055e-01
   endloop
 endfacet
 facet normal  1.000000e+00 -0.000000e+00  0.000000e+00
   outer loop
     vertex  3.000000e+01  9.180056e-02  7.574959e-01
     vertex  3.000000e+01  1.880674e-01  7.099010e-01
     vertex  3.000000e+01  1.797047e-01  8.197000e-01
   endloop
 endfacet
 facet normal  1.000000e+00  0.000000e+00 -0.000000e+00
   outer loop
     vertex  3.000000e+01  4.485281e-01  8.801748e-02
     vertex  3.000000e+01  4.966170e-01  1.704514e-01
     vertex  3.000000e+01  3.998035e-01  1.813870e-01
   endloop
 endfacet
 facet normal  1.000000e+00 -0.000000e+00  0.000000e+00
   outer loop
     vertex  3.000000e+01  8.053532e-01  1.900161e-01
     vertex  3.000000e+01  9.113837e-01  1.391272e-01
     vertex  3.000000e+01  9.076751e-01  2.458742e-01
   endloop
 endfacet
 facet normal  1.000000e+00  0.000000e+00 -0.000000e+00
   outer loop
     vertex  3.000000e+01  6.476384e-01  8.797068e-02
     vertex  3.000000e+01  6.922197e-01  1.812290e-01
     vertex  3.000000e+01  5.949530e-01  1.711680e-01
   endloop
 endfacet
 facet normal  1.000000e+00  0.000000e+00  0.000000e+00
   outer loop
     vertex  3.000000e+01  8.213860e-01  6.041510e-01
     vertex  3.000000e+01  9.122022e-01  6.504929e-01
     vertex  3.000000e+01  8.282210e-01  7.031156e-01
   endloop
 endfacet
 facet normal  1.000000e+00  0.000000e+00 -0.000000e+00
   outer loop
     vertex  3.000000e+01  9.122022e-01  6.504929e-01
     vertex  3.000000e+01  9.124005e-01  7.485055e-01
     vertex  3.000000e+01  8.282210e-01  7.031156e-01
   endloop
 endfacet
 facet normal  1.000000e+00  0.000000e+00  0.000000e+00
   outer loop
     vertex  3.000000e+01  8.053532e-01  1.900161e-01
     vertex  3.000000e+01  9.076751e-01  2.458742e-01
     vertex  3.000000e+01  8.207695e-01  3.034185e-01
   endloop
 endfacet
 facet normal  1.000000e+00  0.000000e+00  0.000000e+00
   outer loop
     vertex  3.000000e+01  9.124005e-01  7.485055e-01
     vertex  3.000000e+01  8.204178e-01  8.134262e-01
     vertex  3.000000e+01  8.282210e-01  7.031156e-01
   endloop
 endfacet
 facet normal  1.000000e+00  0.000000e+00  0.000000e+00
   outer loop
     vertex  3.000000e+01  5.531825e-01  9.072185e-01
     vertex  3.000000e+01  4.513866e-01  9.029966e-01
     vertex  3.000000e+01  5.093716e-01  8.124131e-01
   endloop
 endfacet
 facet normal  1.000000e+00  0.000000e+00  0.000000e+00
   outer loop
     vertex  3.000000e+01  3.490580e-01  8.980811e-01
     vertex  3.000000e+01  2.500777e-01  9.023614e-01
     vertex  3.000000e+01  2.887172e-01  7.827625e-01
   endloop
 endfacet
 facet normal  1.000000e+00  0.000000e+00  0.000000e+00
   outer loop
     vertex  3.000000e+01  9.114624e-01  4.520960e-01
     vertex  3.000000e+01  8.186846e-01  5.053895e-01
     vertex  3.000000e+01  8.243957e-01  4.064649e-01
   endloop
 endfacet
 facet normal  1.000000e+00  0.000000e+00  0.000000e+00
   outer loop
     vertex  3.000000e+01  9.453630e-02  5.462130e-01
     vertex  3.000000e+01  9.212657e-02  4.428593e-01
     vertex  3.000000e+01  1.902860e-01  4.819134e-01
   endloop
 endfacet
 facet normal  1.000000e+00  0.000000e+00  0.000000e+00
   outer loop
     vertex  3.000000e+01  4.513866e-01  9.029966e-01
     vertex  3.000000e+01  4.043952e-01  8.021912e-01
     vertex  3.000000e+01  5.093716e-01  8.124131e-01
   endloop
 endfacet
 facet normal  1.000000e+00  0.000000e+00  0.000000e+00
   outer loop
     vertex  3.000000e+01  1.884757e-01  5.957447e-01
     vertex  3.000000e+01  9.453630e-02  5.462130e-01
     vertex  3.000000e+01  1.902860e-01  4.819134e-01
   endloop
 endfacet
 facet normal  1.000000e+00  0.000000e+00  0.000000e+00
   outer loop
     vertex  3.000000e+01  1.799689e-01  3.727892e-01
     vertex  3.000000e+01  8.328274e-02  3.444445e-01
     vertex  3.000000e+01  1.506557e-01  2.705825e-01
   endloop
 endfacet
 facet normal  1.000000e+00  0.000000e+00  0.000000e+00
   outer loop
     vertex  3.000000e+01  8.328274e-02  3.444445e-01
     vertex  3.000000e+01  6.715222e-02  2.582465e-01
     vertex  3.000000e+01  1.506557e-01  2.705825e-01
   endloop
 endfacet
 facet normal  1.000000e+00  0.000000e+00  0.000000e+00
   outer loop
     vertex  3.000000e+01  1.983915e-01  1.835864e-01
     vertex  3.000000e+01  1.506557e-01  2.705825e-01
     vertex  3.000000e+01  9.649381e-02  1.783521e-01
   endloop
 endfacet
 facet normal  1.000000e+00  0.000000e+00  0.000000e+00
   outer loop
     vertex  3.000000e+01  5.531825e-01  9.072185e-01
     vertex  3.000000e+01  5.093716e-01  8.124131e-01
     vertex  3.000000e+01  6.093259e-01  8.186333e-01
   endloop
 endfacet
 facet normal  1.000000e+00  0.000000e+00  0.000000e+00
   outer loop
     vertex  3.000000e+01  2.887172e-01  7.827625e-01
     vertex  3.000000e+01  2.500777e-01  9.023614e-01
     vertex  3.000000e+01  1.797047e-01  8.197000e-01
   endloop
 endfacet
 facet normal  1.000000e+00  0.000000e+00  0.000000e+00
   outer loop
     vertex  3.000000e+01  3.490580e-01  8.980811e-01
     vertex  3.000000e+01  2.887172e-01  7.827625e-01
     vertex  3.000000e+01  4.043952e-01  8.021912e-01
   endloop
 endfacet
 facet normal  1.000000e+00  0.000000e+00  0.000000e+00
   outer loop
     vertex  3.000000e+01  1.902860e-01  4.819134e-01
     vertex  3.000000e+01  9.212657e-02  4.428593e-01
     vertex  3.000000e+01  1.799689e-01  3.727892e-01
   endloop
 endfacet
 facet normal  1.000000e+00 -0.000000e+00  0.000000e+00
   outer loop
     vertex  3.000000e+01  6.715222e-02  2.582465e-01
     vertex  3.000000e+01  9.649381e-02  1.783521e-01
     vertex  3.000000e+01  1.506557e-01  2.705825e-01
   endloop
 endfacet
 facet normal  1.000000e+00  0.000000e+00  0.000000e+00
   outer loop
     vertex  3.000000e+01  4.966170e-01  1.704514e-01
     vertex  3.000000e+01  5.949530e-01  1.711680e-01
     vertex  3.000000e+01  5.418409e-01  2.425826e-01
   endloop
 endfacet
 facet normal  1.000000e+00  0.000000e+00  0.000000e+00
   outer loop
     vertex  3.000000e+01  1.797047e-01  8.197000e-01
     vertex  3.000000e+01  1.880674e-01  7.099010e-01
     vertex  3.000000e+01  2.887172e-01  7.827625e-01
   endloop
 endfacet
 facet normal  1.000000e+00  0.000000e+00 -0.000000e+00
   outer loop
     vertex  3.000000e+01  2.804135e-01  6.502553e-01
     vertex  3.000000e+01  2.887172e-01  7.827625e-01
     vertex  3.000000e+01  1.880674e-01  7.099010e-01
   endloop
 endfacet
 facet normal  1.000000e+00 -0.000000e+00  0.000000e+00
   outer loop
     vertex  3.000000e+01  2.995691e-01  1.868026e-01
     vertex  3.000000e+01  3.998035e-01  1.813870e-01
     vertex  3.000000e+01  3.535618e-01  2.824780e-01
   endloop
 endfacet
 facet normal  1.000000e+00  0.000000e+00  0.000000e+00
   outer loop
     vertex  3.000000e+01  1.880674e-01  7.099010e-01
     vertex  3.000000e+01  1.884757e-01  5.957447e-01
     vertex  3.000000e+01  2.804135e-01  6.502553e-01
   endloop
 endfacet
 facet normal  1.000000e+00  0.000000e+00  0.000000e+00
   outer loop
     vertex  3.000000e+01  1.884757e-01  5.957447e-01
     vertex  3.000000e+01  1.902860e-01  4.819134e-01
     vertex  3.000000e+01  2.854155e-01  5.299558e-01
   endloop
 endfacet
 facet normal  1.000000e+00  0.000000e+00 -0.000000e+00
   outer loop
     vertex  3.000000e+01  8.213860e-01  6.041510e-01
     vertex  3.000000e+01  8.282210e-01  7.031156e-01
     vertex  3.000000e+01  7.372818e-01  6.605869e-01
   endloop
 endfacet
 facet normal  1.000000e+00 -0.000000e+00  0.000000e+00
   outer loop
     vertex  3.000000e+01  1.506557e-01  2.705825e-01
     vertex  3.000000e+01  1.983915e-01  1.835864e-01
     vertex  3.000000e+01  2.484970e-01  2.839541e-01
   endloop
 endfacet
 facet normal  1.000000e+00  0.000000e+00  0.000000e+00
   outer loop
     vertex  3.000000e+01  1.983915e-01  1.835864e-01
     vertex  3.000000e+01  2.995691e-01  1.868026e-01
     vertex  3.000000e+01  2.484970e-01  2.839541e-01
   endloop
 endfacet
 facet normal  1.000000e+00  0.000000e+00  0.000000e+00
   outer loop
     vertex  3.000000e+01  4.043952e-01  8.021912e-01
     vertex  3.000000e+01  2.887172e-01  7.827625e-01
     vertex  3.000000e+01  3.728109e-01  6.971789e-01
   endloop
 endfacet
 facet normal  1.000000e+00  0.000000e+00  0.000000e+00
   outer loop
     vertex  3.000000e+01  2.887172e-01  7.827625e-01
     vertex  3.000000e+01  2.804135e-01  6.502553e-01
     vertex  3.000000e+01  3.728109e-01  6.971789e-01
   endloop
 endfacet
 facet normal  1.000000e+00  0.000000e+00  0.000000e+00
   outer loop
     vertex  3.000000e+01  8.243957e-01  4.064649e-01
     vertex  3.000000e+01  8.186846e-01  5.053895e-01
     vertex  3.000000e+01  7.236822e-01  4.578141e-01
   endloop
 endfacet
 facet normal  1.000000e+00  0.000000e+00  0.000000e+00
   outer loop
     vertex  3.000000e+01  5.093716e-01  8.124131e-01
     vertex  3.000000e+01  4.043952e-01  8.021912e-01
     vertex  3.000000e+01  4.732922e-01  7.184757e-01
   endloop
 endfacet
 facet normal  1.000000e+00  0.000000e+00  0.000000e+00
   outer loop
     vertex  3.000000e+01  4.043952e-01  8.021912e-01
     vertex  3.000000e+01  3.728109e-01  6.971789e-01
     vertex  3.000000e+01  4.732922e-01  7.184757e-01
   endloop
 endfacet
 facet normal  1.000000e+00 -0.000000e+00  0.000000e+00
   outer loop
     vertex  3.000000e+01  3.998035e-01  1.813870e-01
     vertex  3.000000e+01  4.966170e-01  1.704514e-01
     vertex  3.000000e+01  4.551407e-01  2.648923e-01
   endloop
 endfacet
 facet normal  1.000000e+00  0.000000e+00 -0.000000e+00
   outer loop
     vertex  3.000000e+01  4.966170e-01  1.704514e-01
     vertex  3.000000e+01  5.418409e-01  2.425826e-01
     vertex  3.000000e+01  4.551407e-01  2.648923e-01
   endloop
 endfacet
 facet normal  1.000000e+00  0.000000e+00 -0.000000e+00
   outer loop
     vertex  3.000000e+01  8.186846e-01  5.053895e-01
     vertex  3.000000e+01  8.213860e-01  6.041510e-01
     vertex  3.000000e+01  7.227195e-01  5.617906e-01
   endloop
 endfacet
 facet normal  1.000000e+00  0.000000e+00  0.000000e+00
   outer loop
     vertex  3.000000e+01  8.213860e-01  6.041510e-01
     vertex  3.000000e+01  7.372818e-01  6.605869e-01
     vertex  3.000000e+01  7.227195e-01  5.617906e-01
   endloop
 endfacet
 facet normal  1.000000e+00  0.000000e+00 -0.000000e+00
   outer loop
     vertex  3.000000e+01  8.207695e-01  3.034185e-01
     vertex  3.000000e+01  8.243957e-01  4.064649e-01
     vertex  3.000000e+01  7.444615e-01  3.653688e-01
   endloop
 endfacet
 facet normal  1.000000e+00  0.000000e+00  0.000000e+00
   outer loop
     vertex  3.000000e+01  8.243957e-01  4.064649e-01
     vertex  3.000000e+01  7.236822e-01  4.578141e-01
     vertex  3.000000e+01  7.444615e-01  3.653688e-01
   endloop
 endfacet
 facet normal  1.000000e+00  0.000000e+00  0.000000e+00
   outer loop
     vertex  3.000000e+01  6.093259e-01  8.186333e-01
     vertex  3.000000e+01  5.093716e-01  8.124131e-01
     vertex  3.000000e+01  5.716143e-01  7.237774e-01
   endloop
 endfacet
 facet normal  1.000000e+00  0.000000e+00  0.000000e+00
   outer loop
     vertex  3.000000e+01  5.093716e-01  8.124131e-01
     vertex  3.000000e+01  4.732922e-01  7.184757e-01
     vertex  3.000000e+01  5.716143e-01  7.237774e-01
   endloop
 endfacet
 facet normal  1.000000e+00  0.000000e+00  0.000000e+00
   outer loop
     vertex  3.000000e+01  1.799689e-01  3.727892e-01
     vertex  3.000000e+01  1.506557e-01  2.705825e-01
     vertex  3.000000e+01  2.484970e-01  2.839541e-01
   endloop
 endfacet
 facet normal  1.000000e+00  0.000000e+00  0.000000e+00
   outer loop
     vertex  3.000000e+01  8.282210e-01  7.031156e-01
     vertex  3.000000e+01  8.204178e-01  8.134262e-01
     vertex  3.000000e+01  7.529753e-01  7.480536e-01
   endloop
 endfacet
 facet normal  1.000000e+00  0.000000e+00  0.000000e+00
   outer loop
     vertex  3.000000e+01  7.372818e-01  6.605869e-01
     vertex  3.000000e+01  8.282210e-01  7.031156e-01
     vertex  3.000000e+01  7.529753e-01  7.480536e-01
   endloop
 endfacet
 facet normal  1.000000e+00  0.000000e+00  0.000000e+00
   outer loop
     vertex  3.000000e+01  8.204178e-01  8.134262e-01
     vertex  3.000000e+01  7.093088e-01  8.250921e-01
     vertex  3.000000e+01  7.529753e-01  7.480536e-01
   endloop
 endfacet
 facet normal  1.000000e+00  0.000000e+00  0.000000e+00
   outer loop
     vertex  3.000000e+01  3.535618e-01  2.824780e-01
     vertex  3.000000e+01  3.998035e-01  1.813870e-01
     vertex  3.000000e+01  4.551407e-01  2.648923e-01
   endloop
 endfacet
 facet normal  1.000000e+00  0.000000e+00  0.000000e+00
   outer loop
     vertex  3.000000e+01  2.484970e-01  2.839541e-01
     vertex  3.000000e+01  2.995691e-01  1.868026e-01
     vertex  3.000000e+01  3.535618e-01  2.824780e-01
   endloop
 endfacet
 facet normal  1.000000e+00  0.000000e+00 -0.000000e+00
   outer loop
     vertex  3.000000e+01  8.053532e-01  1.900161e-01
     vertex  3.000000e+01  8.207695e-01  3.034185e-01
     vertex  3.000000e+01  7.214806e-01  2.779907e-01
   endloop
 endfacet
 facet normal  1.000000e+00  0.000000e+00  0.000000e+00
   outer loop
     vertex  3.000000e+01  8.053532e-01  1.900161e-01
     vertex  3.000000e+01  7.214806e-01  2.779907e-01
     vertex  3.000000e+01  6.922197e-01  1.812290e-01
   endloop
 endfacet
 facet normal  1.000000e+00  0.000000e+00  0.000000e+00
   outer loop
     vertex  3.000000e+01  2.804135e-01  6.502553e-01
     vertex  3.000000e+01  1.884757e-01  5.957447e-01
     vertex  3.000000e+01  2.854155e-01  5.299558e-01
   endloop
 endfacet
 facet normal  1.000000e+00  0.000000e+00  0.000000e+00
   outer loop
     vertex  3.000000e+01  2.854155e-01  5.299558e-01
     vertex  3.000000e+01  1.902860e-01  4.819134e-01
     vertex  3.000000e+01  2.969158e-01  3.994211e-01
   endloop
 endfacet
 facet normal  1.000000e+00  0.000000e+00  0.000000e+00
   outer loop
     vertex  3.000000e+01  1.902860e-01  4.819134e-01
     vertex  3.000000e+01  1.799689e-01  3.727892e-01
     vertex  3.000000e+01  2.969158e-01  3.994211e-01
   endloop
 endfacet
 facet normal  1.000000e+00  0.000000e+00  0.000000e+00
   outer loop
     vertex  3.000000e+01  8.207695e-01  3.034185e-01
     vertex  3.000000e+01  7.444615e-01  3.653688e-01
     vertex  3.000000e+01  7.214806e-01  2.779907e-01
   endloop
 endfacet
 facet normal  1.000000e+00  0.000000e+00 -0.000000e+00
   outer loop
     vertex  3.000000e+01  7.236822e-01  4.578141e-01
     vertex  3.000000e+01  8.186846e-01  5.053895e-01
     vertex  3.000000e+01  7.227195e-01  5.617906e-01
   endloop
 endfacet
 facet normal  1.000000e+00 -0.000000e+00  0.000000e+00
   outer loop
     vertex  3.000000e+01  1.799689e-01  3.727892e-01
     vertex  3.000000e+01  2.484970e-01  2.839541e-01
     vertex  3.000000e+01  2.969158e-01  3.994211e-01
   endloop
 endfacet
 facet normal  1.000000e+00  0.000000e+00  0.000000e+00
   outer loop
     vertex  3.000000e+01  5.949530e-01  1.711680e-01
     vertex  3.000000e+01  6.922197e-01  1.812290e-01
     vertex  3.000000e+01  6.245170e-01  2.676646e-01
   endloop
 endfacet
 facet normal  1.000000e+00 -0.000000e+00  0.000000e+00
   outer loop
     vertex  3.000000e+01  5.418409e-01  2.425826e-01
     vertex  3.000000e+01  5.949530e-01  1.711680e-01
     vertex  3.000000e+01  6.245170e-01  2.676646e-01
   endloop
 endfacet
 facet normal  1.000000e+00  0.000000e+00  0.000000e+00
   outer loop
     vertex  3.000000e+01  7.093088e-01  8.250921e-01
     vertex  3.000000e+01  6.093259e-01  8.186333e-01
     vertex  3.000000e+01  6.669078e-01  7.342930e-01
   endloop
 endfacet
 facet normal  1.000000e+00  0.000000e+00  0.000000e+00
   outer loop
     vertex  3.000000e+01  7.529753e-01  7.480536e-01
     vertex  3.000000e+01  7.093088e-01  8.250921e-01
     vertex  3.000000e+01  6.669078e-01  7.342930e-01
   endloop
 endfacet
 facet normal  1.000000e+00  0.000000e+00  0.000000e+00
   outer loop
     vertex  3.000000e+01  6.093259e-01  8.186333e-01
     vertex  3.000000e+01  5.716143e-01  7.237774e-01
     vertex  3.000000e+01  6.669078e-01  7.342930e-01
   endloop
 endfacet
 facet normal  1.000000e+00  0.000000e+00 -0.000000e+00
   outer loop
     vertex  3.000000e+01  6.922197e-01  1.812290e-01
     vertex  3.000000e+01  7.214806e-01  2.779907e-01
     vertex  3.000000e+01  6.245170e-01  2.676646e-01
   endloop
 endfacet
 facet normal  1.000000e+00  0.000000e+00  0.000000e+00
   outer loop
     vertex  3.000000e+01  4.732922e-01  7.184757e-01
     vertex  3.000000e+01  3.728109e-01  6.971789e-01
     vertex  3.000000e+01  4.456792e-01  6.335436e-01
   endloop
 endfacet
 facet normal  1.000000e+00  0.000000e+00  0.000000e+00
   outer loop
     vertex  3.000000e+01  6.245170e-01  2.676646e-01
     vertex  3.000000e+01  7.214806e-01  2.779907e-01
     vertex  3.000000e+01  6.373356e-01  3.811246e-01
   endloop
 endfacet
 facet normal  1.000000e+00  0.000000e+00 -0.000000e+00
   outer loop
     vertex  3.000000e+01  7.214806e-01  2.779907e-01
     vertex  3.000000e+01  7.444615e-01  3.653688e-01
     vertex  3.000000e+01  6.373356e-01  3.811246e-01
   endloop
 endfacet
 facet normal  1.000000e+00  0.000000e+00  0.000000e+00
   outer loop
     vertex  3.000000e+01  7.236822e-01  4.578141e-01
     vertex  3.000000e+01  7.227195e-01  5.617906e-01
     vertex  3.000000e+01  6.064275e-01  5.191989e-01
   endloop
 endfacet
 facet normal  1.000000e+00 -0.000000e+00  0.000000e+00
   outer loop
     vertex  3.000000e+01  3.535618e-01  2.824780e-01
     vertex  3.000000e+01  4.551407e-01  2.648923e-01
     vertex  3.000000e+01  4.236374e-01  3.670347e-01
   endloop
 endfacet
 facet normal  1.000000e+00  0.000000e+00  0.000000e+00
   outer loop
     vertex  3.000000e+01  3.728109e-01  6.971789e-01
     vertex  3.000000e+01  2.804135e-01  6.502553e-01
     vertex  3.000000e+01  3.718018e-01  5.851178e-01
   endloop
 endfacet
 facet normal  1.000000e+00  0.000000e+00  0.000000e+00
   outer loop
     vertex  3.000000e+01  4.456792e-01  6.335436e-01
     vertex  3.000000e+01  3.728109e-01  6.971789e-01
     vertex  3.000000e+01  3.718018e-01  5.851178e-01
   endloop
 endfacet
 facet normal  1.000000e+00  0.000000e+00  0.000000e+00
   outer loop
     vertex  3.000000e+01  2.804135e-01  6.502553e-01
     vertex  3.000000e+01  2.854155e-01  5.299558e-01
     vertex  3.000000e+01  3.718018e-01  5.851178e-01
   endloop
 endfacet
 facet normal  1.000000e+00  0.000000e+00  0.000000e+00
   outer loop
     vertex  3.000000e+01  4.236374e-01  3.670347e-01
     vertex  3.000000e+01  2.969158e-01  3.994211e-01
     vertex  3.000000e+01  3.535618e-01  2.824780e-01
   endloop
 endfacet
 facet normal  1.000000e+00  0.000000e+00 -0.000000e+00
   outer loop
     vertex  3.000000e+01  5.418409e-01  2.425826e-01
     vertex  3.000000e+01  6.245170e-01  2.676646e-01
     vertex  3.000000e+01  5.338234e-01  3.327002e-01
   endloop
 endfacet
 facet normal  1.000000e+00  0.000000e+00 -0.000000e+00
   outer loop
     vertex  3.000000e+01  6.245170e-01  2.676646e-01
     vertex  3.000000e+01  6.373356e-01  3.811246e-01
     vertex  3.000000e+01  5.338234e-01  3.327002e-01
   endloop
 endfacet
 facet normal  1.000000e+00 -0.000000e+00  0.000000e+00
   outer loop
     vertex  3.000000e+01  2.484970e-01  2.839541e-01
     vertex  3.000000e+01  3.535618e-01  2.824780e-01
     vertex  3.000000e+01  2.969158e-01  3.994211e-01
   endloop
 endfacet
 facet normal  1.000000e+00  0.000000e+00  0.000000e+00
   outer loop
     vertex  3.000000e+01  7.444615e-01  3.653688e-01
     vertex  3.000000e+01  7.236822e-01  4.578141e-01
     vertex  3.000000e+01  6.373356e-01  3.811246e-01
   endloop
 endfacet
 facet normal  1.000000e+00  0.000000e+00  0.000000e+00
   outer loop
     vertex  3.000000e+01  5.716143e-01  7.237774e-01
     vertex  3.000000e+01  4.732922e-01  7.184757e-01
     vertex  3.000000e+01  5.380357e-01  6.274810e-01
   endloop
 endfacet
 facet normal  1.000000e+00  0.000000e+00  0.000000e+00
   outer loop
     vertex  3.000000e+01  4.732922e-01  7.184757e-01
     vertex  3.000000e+01  4.456792e-01  6.335436e-01
     vertex  3.000000e+01  5.380357e-01  6.274810e-01
   endloop
 endfacet
 facet normal  1.000000e+00 -0.000000e+00  0.000000e+00
   outer loop
     vertex  3.000000e+01  2.969158e-01  3.994211e-01
     vertex  3.000000e+01  4.236374e-01  3.670347e-01
     vertex  3.000000e+01  3.932619e-01  4.751822e-01
   endloop
 endfacet
 facet normal  1.000000e+00  0.000000e+00  0.000000e+00
   outer loop
     vertex  3.000000e+01  5.418409e-01  2.425826e-01
     vertex  3.000000e+01  5.338234e-01  3.327002e-01
     vertex  3.000000e+01  4.551407e-01  2.648923e-01
   endloop
 endfacet
 facet normal  1.000000e+00  0.000000e+00 -0.000000e+00
   outer loop
     vertex  3.000000e+01  7.372818e-01  6.605869e-01
     vertex  3.000000e+01  7.529753e-01  7.480536e-01
     vertex  3.000000e+01  6.669078e-01  7.342930e-01
   endloop
 endfacet
 facet normal  1.000000e+00  0.000000e+00  0.000000e+00
   outer loop
     vertex  3.000000e+01  7.236822e-01  4.578141e-01
     vertex  3.000000e+01  6.064275e-01  5.191989e-01
     vertex  3.000000e+01  6.373356e-01  3.811246e-01
   endloop
 endfacet
 facet normal  1.000000e+00  0.000000e+00  0.000000e+00
   outer loop
     vertex  3.000000e+01  3.718018e-01  5.851178e-01
     vertex  3.000000e+01  2.854155e-01  5.299558e-01
     vertex  3.000000e+01  3.932619e-01  4.751822e-01
   endloop
 endfacet
endsolid
